<svg xmlns="http://www.w3.org/2000/svg" width="130.714" height="63.2" viewBox="0 0 130.714 63.2">
  <g id="noun-eye-strain-2010932" transform="translate(-23.947 -54.5)">
    <g id="Group_85" data-name="Group 85">
      <path id="Path_379" data-name="Path 379" d="M137.1,92.6a8.786,8.786,0,0,0,0-11.4A61.226,61.226,0,0,0,91.5,59.3h-3A61.226,61.226,0,0,0,42.9,81.2a8.786,8.786,0,0,0,0,11.4,61.226,61.226,0,0,0,45.6,21.9h3A61.392,61.392,0,0,0,137.1,92.6ZM45.9,90a4.834,4.834,0,0,1,0-6.2A57.227,57.227,0,0,1,71.6,66.3a27.465,27.465,0,0,0,0,41.2A57.227,57.227,0,0,1,45.9,90ZM90,110.5h0c0-.1,0-.1.1-.2a6.013,6.013,0,0,0,.7-1.4c.4-1.2-.1-2.8-.5-4.2a6.763,6.763,0,0,1-.4-1.5,1.151,1.151,0,0,0-2.3.1,10.434,10.434,0,0,0,.5,2.1,5.977,5.977,0,0,1,.5,2.7,4.053,4.053,0,0,1-.5.9c-.2.4-.5.8-.7,1.3a26.621,26.621,0,0,1-3.9-.7,2.751,2.751,0,0,1,.8-1.5,4.876,4.876,0,0,0,1.3-2.4,1.118,1.118,0,0,0-2.2-.4,2.477,2.477,0,0,1-.8,1.4,4.227,4.227,0,0,0-1.2,2.2,25.211,25.211,0,0,1-5.8-3.2c.3-.3.5-.6.8-.9a1.413,1.413,0,0,1,1.5-.2,10.805,10.805,0,0,0,1.7.4,1.16,1.16,0,1,0,.3-2.3,4.331,4.331,0,0,1-.5-.1c1.9-1.1,2.3-2.1,2.4-2.4a1.13,1.13,0,0,0-.9-1.3,1.115,1.115,0,0,0-1.3.8,4.833,4.833,0,0,1-1.7,1.3,12.865,12.865,0,0,0-4,3.3c-.4-.4-.8-.7-1.2-1.1.2-.1.3-.3.5-.4a5.074,5.074,0,0,0,1.9-2.3,1.179,1.179,0,0,0-.6-1.5,1.1,1.1,0,0,0-1.5.6c-.3.7-.7.9-1.2,1.4a2.651,2.651,0,0,0-.6.5c-.4-.6-.9-1.2-1.3-1.8a3.011,3.011,0,0,0,1.3-1.9c.1-.5.2-.7.4-.8a2.549,2.549,0,0,1,1.3-.2,3.793,3.793,0,0,0,3.4-1.5A1.151,1.151,0,1,0,74.4,94c-.3.4-.6.5-1.5.5a3.88,3.88,0,0,0-2.5.6,3.59,3.59,0,0,0-1.3,2c-.1.3-.1.5-.3.6a23.075,23.075,0,0,1-1.9-5.2,3.729,3.729,0,0,1,2.4-.5,5.757,5.757,0,0,0,2.8-.5,1.142,1.142,0,1,0-.9-2.1,4.011,4.011,0,0,1-1.9.3,5.953,5.953,0,0,0-2.8.5,13.553,13.553,0,0,1-.2-2,5.048,5.048,0,0,0,2.6.2,14.969,14.969,0,0,0,2-.7c1-.5,1.2-.6,1.9,0A1.134,1.134,0,1,0,74.3,86a3.157,3.157,0,0,0-4.3-.4,6.713,6.713,0,0,1-1.5.6,2.294,2.294,0,0,1-1.5-.1,1.854,1.854,0,0,0-.7-.2,12.253,12.253,0,0,1,.2-1.9,15.243,15.243,0,0,1,1.9.3,5.9,5.9,0,0,0,1.4.2,3.178,3.178,0,0,0,1.3-.2,1.14,1.14,0,0,0-.6-2.2,2.9,2.9,0,0,1-1.6,0,17.324,17.324,0,0,0-2-.4,22.88,22.88,0,0,1,.8-2.8c.2,0,.3.1.5.1a15.624,15.624,0,0,1,3.4,1,2.134,2.134,0,0,1,.8.6,1.028,1.028,0,0,0,1.1,1h.1a1.11,1.11,0,0,0,1.1-1.1c0-.3,0-1.6-2-2.6a14.485,14.485,0,0,0-4-1.2h-.1l.9-1.8a3.282,3.282,0,0,0,2.7,1.5,9,9,0,0,0,1.6-.3,3.9,3.9,0,0,1,1.4-.2,1.1,1.1,0,0,0,1,.6.749.749,0,0,0,.5-.1,1.129,1.129,0,0,0,.4-1.5c-1-1.7-2.9-1.2-4-.8-.4.1-.8.2-1.1.3-.2,0-.8-.7-1.1-1l-.2-.2a16.128,16.128,0,0,1,2.4-2.8c.6.5,1.1,1,1.1,1.3a1.084,1.084,0,0,0,1.1.8h.3a1.226,1.226,0,0,0,.8-1.4,5.394,5.394,0,0,0-1.6-2.2c.3-.3.7-.5,1-.8a4.826,4.826,0,0,0,2.9,2.3c1,.2,1.8,1.5,2.2,2.6a1.081,1.081,0,0,0,1.1.7.6.6,0,0,0,.4-.1,1.119,1.119,0,0,0,.7-1.4c-.4-1-1.5-3.5-3.8-4a2.666,2.666,0,0,1-1.5-1.3,20.989,20.989,0,0,1,3-1.5c.1.1.1.2.2.3a9.1,9.1,0,0,1,1.8,2.7,1.17,1.17,0,0,0,1.1.8.756.756,0,0,0,.4-.1,1.081,1.081,0,0,0,.7-1.4,11.729,11.729,0,0,0-1.9-3,22.911,22.911,0,0,1,2.8-.7c0,.3.1.7.1,1,.2,1.9.4,3.7,1.6,4.5,1.1.7,1,1,1,1.1a1.13,1.13,0,0,0,.9,1.3h.2a1.172,1.172,0,0,0,1.1-.9c.4-1.8-1-2.9-2-3.5a8.4,8.4,0,0,1-.6-2.8c0-.4-.1-.7-.1-1.1h3.2a4.251,4.251,0,0,0-.3,3.1,3.525,3.525,0,0,0,1.2,1.6c.4.4.5.5,0,1.6a1.136,1.136,0,0,0,.5,1.5.9.9,0,0,0,.5.1,1.1,1.1,0,0,0,1-.6c1.2-2.4.4-3.4-.5-4.2-.3-.3-.5-.4-.6-.7a3.768,3.768,0,0,1,.6-2.1,23.69,23.69,0,0,1,3.6.9,6.092,6.092,0,0,0-.3,1.7c-.1.6-.1,1-.3,1.2a1.116,1.116,0,0,0,.1,1.6,1.08,1.08,0,0,0,.7.3.909.909,0,0,0,.8-.4,3.84,3.84,0,0,0,.9-2.5,5.019,5.019,0,0,1,.2-1.2,31.133,31.133,0,0,1,4,2.2,6.071,6.071,0,0,1-.7,1,7.518,7.518,0,0,1-1.6,1.5A6.369,6.369,0,0,0,98.6,73a1.136,1.136,0,0,0,.5,1.5.9.9,0,0,0,.5.1,1.1,1.1,0,0,0,1-.6,4.742,4.742,0,0,1,1.8-1.9,7.978,7.978,0,0,0,2.2-2,3.744,3.744,0,0,0,.6-1c.6.5,1.2,1.1,1.8,1.6a16.44,16.44,0,0,0-4.3,3.4l-.6.6a1.127,1.127,0,0,0-.2,1.6,1.086,1.086,0,0,0,.9.4,1.854,1.854,0,0,0,.7-.2,7.531,7.531,0,0,0,.9-.9,13.854,13.854,0,0,1,4.2-3.2c.5.7,1,1.3,1.5,2.1a3.26,3.26,0,0,0-2.8,1.8,1.129,1.129,0,0,0,.4,1.5,1.268,1.268,0,0,0,.6.1,1.1,1.1,0,0,0,1-.6c.4-.6.6-1,2.2-.4.2.5.5,1,.7,1.6a2.59,2.59,0,0,0-2.3,1.5,2.707,2.707,0,0,1-1.1,1c-.7.3-.8.2-1.4-.4a4.975,4.975,0,0,0-1.3-1.1,1.1,1.1,0,1,0-1.1,1.9,5.5,5.5,0,0,1,.9.7,3.263,3.263,0,0,0,2.4,1.2,2.485,2.485,0,0,0,.8-.1c.1.4.2.9.3,1.3a1.084,1.084,0,0,0,1.1.8h.3a1.138,1.138,0,0,0,.8-1.4c-.1-.4-.4-1.7-.2-2a4.349,4.349,0,0,1,.6-.7c.3-.5.4-.5.8-.5a1.689,1.689,0,0,1,.5.2,24.272,24.272,0,0,1,.8,6.1v.1H114c-.9.3-2,.6-2.5.7a4.213,4.213,0,0,1-1.3-.7,13.431,13.431,0,0,0-2.4-1.2,1.107,1.107,0,1,0-.7,2.1,8.107,8.107,0,0,1,1.8,1,5.279,5.279,0,0,0,2.5,1h.3a18.87,18.87,0,0,0,2.1-.6,22.011,22.011,0,0,1-.7,3.7,1.381,1.381,0,0,1-.3-.4c-.2-.3-.5-.6-.8-1-1.2-1.4-2.8-.9-4-.6l-1.2.3a1.1,1.1,0,1,0,.2,2.2c.5-.1,1.1-.2,1.5-.3,1.1-.3,1.5-.3,1.8,0a3.278,3.278,0,0,1,.6.8,4.036,4.036,0,0,0,1.3,1.3,19.987,19.987,0,0,1-1,2.1c-.3-.1-.5-.4-1-1.1a10.474,10.474,0,0,0-.8-1.1,1.134,1.134,0,1,0-1.7,1.5,5.547,5.547,0,0,1,.6.8,5.99,5.99,0,0,0,1.7,1.9,18.9,18.9,0,0,1-2,2.7c-.3-.2-.5-.4-.8-.6s-.6-.3-1-.6c-.2-.1-.2-.3-.2-1.1a3.131,3.131,0,0,0-2.2-3.7,1.107,1.107,0,1,0-.7,2.1c.8.3.8.5.7,1.4a2.991,2.991,0,0,0,1.1,3c.4.3.8.5,1.1.7a1.38,1.38,0,0,1,.4.3,24.845,24.845,0,0,1-3,2.5,9.622,9.622,0,0,1-1.7-1.3c-.4-.4-.4-1.1-.3-2.3v-.7a1.278,1.278,0,0,0-1.1-1.2c-.6-.1-1.1.5-1.2,1.1v.7c-.1,1.5-.2,3,1.1,4.1a10.627,10.627,0,0,1,1.1.9,16.976,16.976,0,0,1-4.4,1.8c-.2-.3-.1-.8.1-1.6a5.274,5.274,0,0,0,.3-1.2c.1-1.4-1-2.1-1.8-2.7-.3-.2-.5-.4-.8-.6a1.134,1.134,0,0,0-1.5,1.7,6.07,6.07,0,0,0,1,.7,9.684,9.684,0,0,1,.9.7,2.073,2.073,0,0,1-.2.6,4.51,4.51,0,0,0-.2,2.9,19.7,19.7,0,0,1-3.4.4A2.232,2.232,0,0,1,90,110.5Zm18.3-3a27.465,27.465,0,0,0,0-41.2A57.227,57.227,0,0,1,134,83.8a4.834,4.834,0,0,1,0,6.2A57.227,57.227,0,0,1,108.3,107.5Z"/>
      <path id="Path_380" data-name="Path 380" d="M103.5,86.9A13.5,13.5,0,1,0,90,100.4,13.572,13.572,0,0,0,103.5,86.9ZM99,86.5a9.16,9.16,0,0,1-1.1,4.3,1.9,1.9,0,0,1-1.8,1,2.92,2.92,0,0,1-.9-.2,1.969,1.969,0,0,1-.8-2.7,5.025,5.025,0,0,0,.6-2.4,2,2,0,0,1,4,0ZM83.7,88.4a1.949,1.949,0,0,1-.8.1,2.051,2.051,0,0,1-2-2v-.4c0-.1.1-.3.1-.4s.1-.2.2-.3.2-.2.2-.3a2.128,2.128,0,0,1,2.8,0,1.933,1.933,0,0,1,0,2.8A1.2,1.2,0,0,1,83.7,88.4Zm2.7-5.9a1.993,1.993,0,0,1-1-3.7A9.4,9.4,0,0,1,90,77.5a2,2,0,0,1,0,4,4.845,4.845,0,0,0-2.6.7A1.929,1.929,0,0,1,86.4,82.5Z"/>
      <path id="Path_381" data-name="Path 381" d="M35,84.9h.3a1.17,1.17,0,0,0,1.1-.8,1.138,1.138,0,0,0-.8-1.4c-3.6-1-8.4-6.7-9.5-9.7a1.119,1.119,0,0,0-1.4-.7,1.216,1.216,0,0,0-.7,1.4C25.3,77.4,30.5,83.6,35,84.9Z"/>
      <path id="Path_382" data-name="Path 382" d="M40.9,94.2a1.134,1.134,0,0,0-1.7,1.5,60.242,60.242,0,0,0,4.9,5.2,1.217,1.217,0,0,0,1.6,0,1.217,1.217,0,0,0,0-1.6A57.884,57.884,0,0,1,40.9,94.2Z"/>
      <path id="Path_383" data-name="Path 383" d="M139,94.2a64.13,64.13,0,0,1-34.8,21.3,1,1,0,0,0-.8,1.3,1.172,1.172,0,0,0,1.1.9h.3a65.349,65.349,0,0,0,36-22,1.215,1.215,0,0,0-.1-1.6A1.229,1.229,0,0,0,139,94.2Z"/>
      <path id="Path_384" data-name="Path 384" d="M129.1,67.2a1.14,1.14,0,1,0-1.4,1.8A70.042,70.042,0,0,1,139,79.5a.975.975,0,0,0,.9.4.908.908,0,0,0,.7-.3,1.116,1.116,0,0,0,.1-1.6A70.072,70.072,0,0,0,129.1,67.2Z"/>
      <path id="Path_385" data-name="Path 385" d="M40,80a1.222,1.222,0,0,0,.9-.4A64.1,64.1,0,0,1,90,56.7a1.1,1.1,0,1,0,0-2.2A66.207,66.207,0,0,0,39.2,78.2a1.215,1.215,0,0,0,.1,1.6A1.854,1.854,0,0,0,40,80Z"/>
      <path id="Path_386" data-name="Path 386" d="M35,88.5c-2.8.9-5.9,3.6-6.1,3.7a1.116,1.116,0,0,0-.1,1.6.975.975,0,0,0,.9.4.908.908,0,0,0,.7-.3,20.25,20.25,0,0,1,5.3-3.3,1.107,1.107,0,1,0-.7-2.1Z"/>
      <path id="Path_387" data-name="Path 387" d="M153.9,72.3a1.081,1.081,0,0,0-1.4.7c-1.1,3-5.9,8.7-9.5,9.7a1.226,1.226,0,0,0-.8,1.4,1.084,1.084,0,0,0,1.1.8h.3c4.5-1.3,9.7-7.5,11-11.1A1.231,1.231,0,0,0,153.9,72.3Z"/>
      <path id="Path_388" data-name="Path 388" d="M143.6,88.5a1.107,1.107,0,0,0-.7,2.1,19.416,19.416,0,0,1,5.3,3.3,1.08,1.08,0,0,0,.7.3,1.221,1.221,0,0,0,.9-.4,1.116,1.116,0,0,0-.1-1.6C149.5,92.1,146.3,89.4,143.6,88.5Z"/>
    </g>
  </g>
</svg>
