<svg width="1117" height="196" viewBox="0 0 1117 196" fill="none" xmlns="http://www.w3.org/2000/svg">
<path d="M832.561 0V63.1807C834.416 61.1357 835.415 60.0776 836.354 58.9837C852.036 40.8285 879.477 41.5775 892.96 61.5043C897.965 68.8996 901.14 78.1495 902.852 86.9953C905.824 102.404 904.992 118.003 898.857 132.829C890.796 152.34 874.816 162.196 855.71 159.723C846.995 158.594 840.135 154.385 834.939 147.406C833.548 145.539 832.264 143.601 830.718 141.378C830.231 142.519 829.898 143.197 829.648 143.922C826.232 153.909 818.888 158.186 807.617 156.751V0H832.561ZM879.858 104.461C878.217 95.7103 877.539 88.3864 875.399 81.5262C871.63 69.4465 863.272 64.2508 852.31 66.0104C841.859 67.6868 832.573 78.6489 832.561 89.3495C832.549 99.194 832.514 109.027 832.561 118.871C832.609 127.764 841.217 138.358 849.991 140.439C859.515 142.709 868.789 138.917 872.926 129.155C876.398 120.999 877.825 111.987 879.858 104.461Z" fill="#484A4F"/>
<path d="M24.9322 0C25.0155 21.4605 25.0987 42.921 25.2057 64.3815C25.2057 64.5242 25.4078 64.6669 25.9072 65.3446C27.3339 63.7633 28.7012 62.2415 30.0685 60.7315C38.7359 51.2199 49.1987 45.6556 62.4317 46.1669C78.3279 46.797 90.7762 57.7472 91.1804 73.5721C91.8819 100.93 91.4063 128.311 91.4063 155.681C91.4063 156.026 91.1091 156.359 90.8 157.012H66.4146C66.3076 154.706 66.1174 152.602 66.1174 150.509C66.0936 130.428 66.1174 110.334 66.0936 90.2531C66.0936 87.6968 66.0699 85.1287 65.7964 82.5844C64.3221 69.173 54.0615 63.3828 42.0412 69.8626C31.6022 75.4982 24.1238 82.9648 24.7896 96.7447C25.7526 116.576 25.0392 136.479 25.0392 156.846H0V0H24.9441H24.9322Z" fill="#DAAD86"/>
<path d="M1116.41 127.658C1116.07 128.11 1115.53 128.514 1115.39 129.025C1109.71 148.904 1093.73 160.972 1069.33 160.128C1046.06 159.331 1030.43 147.121 1024.49 125.054C1020.15 108.908 1020.3 92.6552 1026.11 76.8541C1036.29 49.1992 1069.38 37.1432 1095.27 51.47C1106.53 57.7001 1112.65 67.5684 1115.6 80.6111C1107.66 82.454 1100.06 84.2255 1091.99 86.1041C1091.03 83.0841 1090.19 80.1237 1089.16 77.2465C1086.57 70.0414 1081.94 64.9289 1073.92 64.2156C1065.67 63.4903 1058.21 65.9514 1054.11 73.3824C1051.23 78.5899 1049.31 84.6298 1048.38 90.527C1046.44 102.868 1046.7 115.269 1051.08 127.218C1053.91 134.958 1059.15 140.261 1067.57 141.711C1078.5 143.59 1086.45 139.012 1090.5 128.585C1091.63 125.684 1092.42 122.652 1093.43 119.454C1101.19 121.428 1108.81 123.366 1116.42 125.304V127.67L1116.41 127.658Z" fill="#484A4F"/>
<path d="M242.938 195.641H218.601V48.8537H242.035V61.2782C248.729 56.7127 254.84 50.7798 262.176 47.9026C277.858 41.7438 295.585 48.7348 305.025 63.2162C318.306 83.571 317.925 122.093 304.181 142.127C295.43 154.872 283.493 161.126 267.775 159.711C257.277 158.772 250.072 152.815 242.938 144.766C242.938 153.053 242.938 161.34 242.938 169.627C242.938 177.914 242.938 186.486 242.938 195.641ZM242.938 102.987C242.938 107.719 242.938 112.439 242.938 117.171C242.974 127.764 251.427 138.536 261.224 140.462C271.366 142.471 280.652 137.311 284.884 126.123C290.805 110.465 290.615 94.4499 284.837 78.7676C282.09 71.301 276.609 66.3431 268.203 65.4276C256.207 64.1317 243.14 75.5813 242.95 87.6253C242.867 92.7497 242.938 97.8621 242.938 102.987Z" fill="#DAAD86"/>
<path d="M426.917 108.48H353.071C351.324 124.637 359.504 138.631 372.106 141.865C386.873 145.658 395.826 140.284 403.542 122.39C410.676 124.423 417.929 126.48 425.68 128.68C420.782 143.851 411.734 154.551 396.682 157.75C387.052 159.795 376.482 160.282 366.78 158.725C345.308 155.277 333.727 140.772 329.388 120.274C326.831 108.194 327.105 96.0076 330.089 83.9517C336.212 59.1859 354.962 45.2158 380.869 46.0956C403.221 46.8565 421.044 63.3947 425.003 87.4353C426.085 93.9864 426.227 100.692 426.905 108.48H426.917ZM401.259 91.6917C402.199 74.666 392.699 63.1927 378.099 63.1094C363.356 63.0262 352.762 75.0465 353.214 91.6917H401.248H401.259Z" fill="#DAAD86"/>
<path d="M712.728 157.047H688.046V48.7342H711.884V64.9871C712.312 65.1655 712.752 65.3438 713.18 65.5222C714.512 64.0122 715.82 62.4785 717.187 61.0042C725.854 51.6115 736.163 45.7619 749.407 46.0353C765.553 46.3682 778.43 57.2828 778.846 73.286C779.571 100.989 779.048 128.727 779.048 156.893H754.151C754.056 154.991 753.854 152.934 753.854 150.865C753.83 130.795 753.842 110.714 753.842 90.6446C753.842 88.8731 753.925 87.0897 753.795 85.3301C753.331 78.9573 752.855 72.4181 746.221 69.0652C739.111 65.4746 732.239 67.2462 726.104 71.5383C717.77 77.3879 711.979 84.2124 712.491 95.7928C713.37 115.993 712.74 136.265 712.74 157.036L712.728 157.047Z" fill="#DAAD86"/>
<path d="M668.522 105.305C667.19 111.927 666.37 120.452 663.719 128.371C656.466 149.938 637.372 161.851 614.449 160.044C591.086 158.201 574.821 143.601 570.303 120.084C567.937 107.766 567.985 95.413 571.171 83.1906C577.472 58.9955 595.497 45.501 620.714 46.0835C643.685 46.6067 661.222 61.6231 666.097 85.3069C667.321 91.2517 667.595 97.3867 668.534 105.317L668.522 105.305ZM593.535 103.034C593.749 103.094 593.975 103.141 594.189 103.201C594.605 108.087 594.831 113.009 595.485 117.872C595.901 120.964 596.745 124.043 597.791 126.991C601.382 137.109 608.088 142.055 617.968 142.127C628.193 142.198 635.446 137.347 638.763 127.015C643.816 111.262 643.804 95.2466 638.905 79.4573C635.671 69.054 628.324 63.8821 618.396 63.8821C608.516 63.8821 600.847 69.0897 597.839 79.3979C595.616 87.0428 594.914 95.1396 593.535 103.034Z" fill="#DAAD86"/>
<path d="M107.218 194.25V176.309C110.607 176.594 114.245 177.046 117.895 177.177C130.772 177.653 141.092 168.926 142.316 156.323C142.518 154.313 141.567 152.126 140.866 150.105C129.82 118.134 118.716 86.1749 107.635 54.2041C107.064 52.5514 106.505 50.8988 105.673 48.4258C114.019 48.4258 121.831 48.2236 129.618 48.6279C130.902 48.6992 132.674 51.2436 133.149 52.9557C139.867 76.806 146.382 100.704 152.969 124.602C153.457 126.373 154.039 128.121 154.586 129.869C155.109 129.869 155.632 129.869 156.156 129.869C163.61 102.903 171.065 75.938 178.579 48.7468H203.416C198.09 64.2863 192.942 79.3146 187.794 94.3429C180.279 116.303 172.789 138.263 165.275 160.223C164.764 161.709 164.3 163.219 163.741 164.681C154.063 190.327 135.064 200.409 107.207 194.238L107.218 194.25Z" fill="#DAAD86"/>
<path d="M1010.8 80.8247C1003.03 82.5962 995.555 84.2964 987.565 86.1155C986.875 83.5711 986.328 81.1457 985.544 78.8035C982.868 70.7781 978.184 64.8928 969.005 64.0843C960.029 63.2877 951.884 67.8532 947.925 76.4374C942.825 87.4947 942.456 99.3247 943.526 111.167C944.002 116.41 945.048 121.725 946.724 126.694C950.291 137.276 957.901 142.27 968.732 141.937C977.958 141.663 983.986 136.408 987.279 125.743C987.85 123.877 988.314 121.986 989.051 119.299C996.625 121.344 1004.1 123.377 1011.51 125.375C1009.37 142.84 994.889 156.894 976.793 159.45C943.538 164.146 920.413 145.539 917.964 112.177C917.001 99.075 917.631 86.1988 922.981 73.9645C934.538 47.5104 968.684 37.1903 993.177 52.6942C1002.75 58.7459 1009.7 69.5773 1010.81 80.8009L1010.8 80.8247Z" fill="#484A4F"/>
<path d="M470.443 157.048H446.165V48.7351H469.147V72.2763C473.891 65.7727 477.696 59.4356 482.618 54.1091C487.826 48.4735 494.841 45.8935 503.211 46.2621C502.783 53.1461 502.581 59.6021 501.843 65.9867C501.689 67.3183 499.763 69.2087 498.372 69.506C482.285 72.9777 470.443 87.2808 470.443 103.617C470.443 121.285 470.443 138.941 470.443 157.06V157.048Z" fill="#DAAD86"/>
<path d="M548.498 157.024H524.255V48.7109H548.498V157.024Z" fill="#DAAD86"/>
<path d="M523.209 28.2618V3.75757H549.592V28.2618H523.209Z" fill="#DAAD86"/>
</svg>
