<svg xmlns="http://www.w3.org/2000/svg" width="81.176" height="81.161" viewBox="0 0 81.176 81.161">
  <g id="noun-management-6691361" transform="translate(-1.453 -1.454)">
    <path id="Path_390" data-name="Path 390" d="M50.08,8.683h3.092a1.775,1.775,0,0,1,1.264.528l0,0h0a1.791,1.791,0,0,1,.525,1.264v2.157a13.522,13.522,0,0,1,3.692,1.528l1.6-1.593a1.778,1.778,0,0,1,2.45.072l0,0L64.968,14.9h0a1.778,1.778,0,0,1-.072,2.45l0,0-1.525,1.525A13.623,13.623,0,0,1,64.9,22.567h2.157a1.79,1.79,0,0,1,1.789,1.789v3.092a1.79,1.79,0,0,1-1.789,1.789H64.9a13.666,13.666,0,0,1-1.528,3.692L64.9,34.455a1.79,1.79,0,0,1,0,2.529l0,0-2.265,2.255a1.785,1.785,0,0,1-2.454-.072l0,0-1.522-1.525a13.623,13.623,0,0,1-3.692,1.528v2.157a1.794,1.794,0,0,1-1.789,1.789H50.08a1.781,1.781,0,0,1-1.261-.528l0,0a1.791,1.791,0,0,1-.525-1.264V39.176A13.624,13.624,0,0,1,44.6,37.648L43,39.241a1.781,1.781,0,0,1-2.45-.072l0,0-2.187-2.187a1.794,1.794,0,0,1,0-2.532L39.88,32.93a13.623,13.623,0,0,1-1.528-3.692H36.195a1.79,1.79,0,0,1-1.789-1.789V24.356a1.79,1.79,0,0,1,1.789-1.789h2.157a13.624,13.624,0,0,1,1.528-3.692l-1.593-1.6a1.781,1.781,0,0,1,.072-2.45l0,0L40.62,12.56v0a1.782,1.782,0,0,1,2.454.072l0,0L44.6,14.157h0a13.666,13.666,0,0,1,3.692-1.528V10.471A1.794,1.794,0,0,1,50.08,8.682Zm10.388,52.7A6.22,6.22,0,0,1,54.3,67H39.936a.978.978,0,1,1,0-1.955H54.3a4.241,4.241,0,0,0,0-8.482H43.331v0a.993.993,0,0,1-.479-.127c-9.587-5.474-15.228-3.294-20.568-1.232a26.58,26.58,0,0,1-7.938,2.151V76.69a89.391,89.391,0,0,1,17.431,1.936,92.083,92.083,0,0,0,10.1,1.5,7.772,7.772,0,0,0,4.976-1.1L79.374,58.608c1.717-1.075.3-3.207-1-4.158a4.612,4.612,0,0,0-5.1-.411L60.464,61.378ZM4.73,51.989h6.843a2.777,2.777,0,0,1,2.773,2.773v.622a25.488,25.488,0,0,0,7.234-2.007c5.716-2.209,11.754-4.542,22,1.225H54.3a6.219,6.219,0,0,1,6,4.627L72.3,52.348a6.518,6.518,0,0,1,7.224.534,6.252,6.252,0,0,1,2.506,3.63,3.394,3.394,0,0,1-1.616,3.751L47.887,80.672a9.672,9.672,0,0,1-6.165,1.4,93.914,93.914,0,0,1-10.3-1.532,87.734,87.734,0,0,0-17.072-1.9V79.3a2.778,2.778,0,0,1-2.773,2.776H4.73A2.783,2.783,0,0,1,1.953,79.3V54.763A2.783,2.783,0,0,1,4.73,51.986Zm6.843,1.955H4.73a.821.821,0,0,0-.821.818V79.3a.826.826,0,0,0,.821.821h6.843a.825.825,0,0,0,.818-.821V54.762a.825.825,0,0,0-.818-.821ZM51.628,3.909a22,22,0,0,1,10.907,41.1l.472-1.763a.976.976,0,0,0-1.887-.5l-1.039,3.874h0a.973.973,0,0,0,.691,1.193l3.874,1.039a.976.976,0,0,0,.5-1.887l-1.44-.385h0A23.949,23.949,0,0,0,51.629,1.954a.978.978,0,1,0,0,1.955ZM38.1,4.841l1.44.385v0a23.946,23.946,0,0,0,12.086,44.62.978.978,0,1,0,0-1.955A22,22,0,0,1,40.718,6.8l-.472,1.763v0a.977.977,0,1,0,1.887.505L43.171,5.19a.978.978,0,0,0-.691-1.2L38.606,2.955v0A.975.975,0,1,0,38.1,4.841Zm14.9,5.8h-2.76v2.773h0a.972.972,0,0,1-.8.958,11.735,11.735,0,0,0-4.386,1.805.976.976,0,0,1-1.29-.081L41.81,14.131l-1.952,1.952,1.962,1.962,0,0a.978.978,0,0,1,.117,1.242,11.629,11.629,0,0,0-1.828,4.37.974.974,0,0,1-.971.864H36.361v2.76h2.773v0a.978.978,0,0,1,.961.8,11.674,11.674,0,0,0,1.8,4.386.976.976,0,0,1-.078,1.29L39.858,35.72l1.952,1.952,1.962-1.962v0a.978.978,0,0,1,1.242-.117,11.676,11.676,0,0,0,4.37,1.825.979.979,0,0,1,.864.971v2.773h2.76V38.392h0a.977.977,0,0,1,.8-.958,11.627,11.627,0,0,0,4.386-1.805.98.98,0,0,1,1.29.081l1.962,1.962,1.952-1.952-1.962-1.962h0a.978.978,0,0,1-.117-1.242,11.682,11.682,0,0,0,1.828-4.37.977.977,0,0,1,.971-.864h2.773v-2.76H64.118v0a.981.981,0,0,1-.961-.8,11.734,11.734,0,0,0-1.805-4.386h0a.976.976,0,0,1,.078-1.29l1.962-1.962-1.952-1.955L59.481,16.1v0a.978.978,0,0,1-1.242.117,11.682,11.682,0,0,0-4.37-1.828.979.979,0,0,1-.864-.971Zm-1.382,7.254h0a8.011,8.011,0,1,0,8.01,8.013,8.013,8.013,0,0,0-8.01-8.013ZM55.91,21.62a6.056,6.056,0,1,0,0,8.567,6.055,6.055,0,0,0,0-8.567Z" stroke="#000" stroke-width="1" fill-rule="evenodd"/>
  </g>
</svg>
