<svg xmlns="http://www.w3.org/2000/svg" width="34.697" height="34.697" viewBox="0 0 34.697 34.697">
  <g id="noun-medical-1112339" transform="translate(-5 -5)" opacity="0.5">
    <g id="Group_137" data-name="Group 137" transform="translate(5 5)">
      <path id="Path_416" data-name="Path 416" d="M10.783,5A5.8,5.8,0,0,0,5,10.783V33.914A5.8,5.8,0,0,0,10.783,39.7H33.914A5.8,5.8,0,0,0,39.7,33.914V10.783A5.8,5.8,0,0,0,33.914,5Zm0,2.313H33.914a3.437,3.437,0,0,1,3.47,3.47V33.914a3.437,3.437,0,0,1-3.47,3.47H10.783a3.437,3.437,0,0,1-3.47-3.47V10.783A3.437,3.437,0,0,1,10.783,7.313ZM19.144,10.4a1.157,1.157,0,0,0-1.036,1.157v6.554H11.554A1.157,1.157,0,0,0,10.4,19.264v6.168a1.157,1.157,0,0,0,1.156,1.157h6.554v6.554A1.157,1.157,0,0,0,19.264,34.3h6.168a1.157,1.157,0,0,0,1.157-1.156V26.589h6.554A1.157,1.157,0,0,0,34.3,25.433V19.264a1.157,1.157,0,0,0-1.156-1.157H26.589V11.554A1.157,1.157,0,0,0,25.433,10.4H19.264A1.156,1.156,0,0,0,19.144,10.4Zm1.277,2.313h3.855v6.554a1.157,1.157,0,0,0,1.156,1.157h6.554v3.855H25.433a1.157,1.157,0,0,0-1.157,1.156v6.554H20.421V25.433a1.157,1.157,0,0,0-1.156-1.157H12.71V20.421h6.554a1.157,1.157,0,0,0,1.157-1.156Z" transform="translate(-5 -5)"/>
    </g>
  </g>
</svg>
