<svg xmlns="http://www.w3.org/2000/svg" width="66.335" height="82.055" viewBox="0 0 66.335 82.055">
  <g id="Group_86" data-name="Group 86" transform="translate(-6346.2 -1349.531)">
    <path id="Path_391" data-name="Path 391" d="M52.677,9.049c-.487-.147-.066-.17-32.188,9.378a1.1,1.1,0,0,0-.789,1.062V53.011c0,16.536,16.728,32.505,32.358,37.047a1.105,1.105,0,0,0,.619,0c15.63-4.541,32.358-20.51,32.358-37.047V19.488a1.115,1.115,0,0,0-.789-1.062L52.684,9.049ZM82.816,53.011c0,15.2-15.984,30.478-30.456,34.828C37.888,83.481,21.9,68.213,21.9,53.011v-32.7L52.36,11.268l30.456,9.046Z" transform="translate(6327 1340.983)" stroke="#000" stroke-width="1"/>
    <path id="Path_392" data-name="Path 392" d="M54.558,18.977l-24.5,7.277a1.1,1.1,0,0,0-.789,1.062v28.3c0,12.216,13.3,25.435,25.236,29.659a1.1,1.1,0,0,0,.737,0c11.936-4.224,25.236-17.436,25.236-29.659v-28.3a1.115,1.115,0,0,0-.789-1.062c-25.066-7.446-24.646-7.424-25.133-7.277Zm23.71,36.641c0,10.852-12.275,23.327-23.393,27.44C43.75,78.953,31.482,66.471,31.482,55.619V28.141l23.393-6.952,23.393,6.952Z" transform="translate(6324.485 1338.375)" stroke="#000" stroke-width="1"/>
    <path id="Path_393" data-name="Path 393" d="M50.593,51.67A4.314,4.314,0,0,0,43.25,54.7a4.262,4.262,0,0,0,1.261,3.03l8.6,8.545a4.316,4.316,0,0,0,6.075,0l13.388-13.3a4.262,4.262,0,0,0,1.261-3.03,4.314,4.314,0,0,0-7.343-3.03L56.152,57.192,50.593,51.67Zm20.429-3.185a2.056,2.056,0,0,1,0,2.92L57.634,64.7a2.159,2.159,0,0,1-2.964,0c-9.12-9.061-9.208-8.817-9.208-10a2.052,2.052,0,0,1,2.086-2.064c1.143,0,1.054.184,7.822,6.908a1.1,1.1,0,0,0,1.556,0L68.051,48.485a2.109,2.109,0,0,1,2.964,0Z" transform="translate(6320.813 1331.353)" stroke="#000" stroke-width="1"/>
  </g>
</svg>
