<svg xmlns="http://www.w3.org/2000/svg" width="34.5" height="34.5" viewBox="0 0 34.5 34.5">
  <g id="Group_148" data-name="Group 148" transform="translate(-1025.75 -1506.5)" opacity="0.56">
    <path id="Path_419" data-name="Path 419" d="M34.75,6.6c0-3.1-2-5.35-4.75-5.35H6A4.754,4.754,0,0,0,1.25,6V30A4.754,4.754,0,0,0,6,34.75H30A4.754,4.754,0,0,0,34.75,30V12c0-.02-.01-.03-.01-.05,0-.04.01-.07.01-.11ZM2.75,6A3.256,3.256,0,0,1,6,2.75H30c1.91,0,3.25,1.58,3.25,3.85v5.23a3.371,3.371,0,0,1-2.93,3.4,3.246,3.246,0,0,1-3.57-3.24.75.75,0,0,0-1.5,0,3.25,3.25,0,1,1-6.5,0,.75.75,0,0,0-1.5,0,3.25,3.25,0,0,1-6.5,0,.755.755,0,0,0-.75-.75.764.764,0,0,0-.75.76,3.3,3.3,0,0,1-1.06,2.41,3.249,3.249,0,0,1-2.51.83,3.374,3.374,0,0,1-2.93-3.41V6Zm19,27.25V21A1.25,1.25,0,0,1,23,19.75h5A1.25,1.25,0,0,1,29.25,21V33.25Zm9-.1V21A2.748,2.748,0,0,0,28,18.25H23A2.748,2.748,0,0,0,20.25,21V33.25H6A3.256,3.256,0,0,1,2.75,30V15.38a4.571,4.571,0,0,0,2.79,1.34A4.809,4.809,0,0,0,9.2,15.51a4.968,4.968,0,0,0,.81-.96,4.748,4.748,0,0,0,8,0,4.748,4.748,0,0,0,8,0,4.589,4.589,0,0,0,.81.96,4.809,4.809,0,0,0,3.66,1.21,4.626,4.626,0,0,0,2.79-1.34V30A3.287,3.287,0,0,1,30.75,33.15Z" transform="translate(1025 1505.75)" stroke="#707070" stroke-width="1"/>
    <path id="Path_420" data-name="Path 420" d="M15,19.25H8A2.748,2.748,0,0,0,5.25,22v5A2.748,2.748,0,0,0,8,29.75h7A2.748,2.748,0,0,0,17.75,27V22A2.748,2.748,0,0,0,15,19.25ZM16.25,27A1.25,1.25,0,0,1,15,28.25H8A1.25,1.25,0,0,1,6.75,27V22A1.25,1.25,0,0,1,8,20.75h7A1.25,1.25,0,0,1,16.25,22Z" transform="translate(1025 1505.75)" stroke="#707070" stroke-width="1"/>
    <path id="Path_421" data-name="Path 421" d="M13,23.75h-.75V23a.75.75,0,0,0-1.5,0v.75H10a.75.75,0,0,0,0,1.5h.75V26a.75.75,0,0,0,1.5,0v-.75H13a.75.75,0,0,0,0-1.5Z" transform="translate(1025 1505.75)" stroke="#707070" stroke-width="1"/>
  </g>
</svg>
