<svg xmlns="http://www.w3.org/2000/svg" width="49.967" height="49.967" viewBox="0 0 49.967 49.967">
  <g id="Group_149" data-name="Group 149" transform="translate(-1450.12 -1565.5)" opacity="0.5">
    <path id="Path_422" data-name="Path 422" d="M35.513,38.317a.733.733,0,0,0,.594-.3,12.044,12.044,0,0,1,17.758-1.973.735.735,0,0,0,.976-1.1,13.511,13.511,0,0,0-19.921,2.2.733.733,0,0,0,.594,1.166Z" transform="translate(1429.161 1545.404)" stroke="#707070" stroke-width="1"/>
    <path id="Path_423" data-name="Path 423" d="M55.261,39.508a.733.733,0,0,0-.205,1.012,12.036,12.036,0,1,1-21.513,2.934A.733.733,0,1,0,32.149,43a13.511,13.511,0,1,0,24.132-3.257.733.733,0,0,0-1.02-.235Z" transform="translate(1430.038 1543.311)" stroke="#707070" stroke-width="1"/>
    <path id="Path_424" data-name="Path 424" d="M50.425,42.613l-5.362,5.362-.594-.645a2.443,2.443,0,0,0-1.782-.777h0A2.435,2.435,0,0,0,40.963,50.7l3.55,3.557a.734.734,0,0,0,.521.213h0a.733.733,0,0,0,.521-.213l8.266-8.252a2.4,2.4,0,0,0,0-3.4A2.457,2.457,0,0,0,50.425,42.613Zm2.362,1.034a.932.932,0,0,1,0,1.32l-7.753,7.746L42,49.676A.968.968,0,1,1,43.4,48.334l1.115,1.2a.735.735,0,0,0,1.056.022l5.868-5.868a.954.954,0,0,1,1.342-.037Z" transform="translate(1427.701 1542.634)" stroke="#707070" stroke-width="1"/>
    <path id="Path_425" data-name="Path 425" d="M43.8,26.75a16.973,16.973,0,1,0,12.082,4.971A17.053,17.053,0,0,0,43.8,26.75Zm0,32.64A15.586,15.586,0,1,1,59.39,43.8,15.6,15.6,0,0,1,43.8,59.39Z" transform="translate(1431.3 1546.68)" stroke="#707070" stroke-width="1"/>
    <path id="Path_426" data-name="Path 426" d="M80.714,48.91H76.863a.733.733,0,0,0,0,1.467h3.851a.733.733,0,1,0,0-1.467Z" transform="translate(1418.14 1540.774)" stroke="#707070" stroke-width="1"/>
    <path id="Path_427" data-name="Path 427" d="M49.823,76.13a.733.733,0,0,0-.733.733v3.851a.733.733,0,1,0,1.467,0V76.863A.733.733,0,0,0,49.823,76.13Z" transform="translate(1425.346 1533.52)" stroke="#707070" stroke-width="1"/>
    <path id="Path_428" data-name="Path 428" d="M21.2,49.09H17.353a.733.733,0,0,0,0,1.467H21.2a.733.733,0,1,0,0-1.467Z" transform="translate(1434 1540.726)" stroke="#707070" stroke-width="1"/>
    <path id="Path_429" data-name="Path 429" d="M49.643,21.938a.733.733,0,0,0,.733-.733V17.353a.733.733,0,0,0-1.467,0V21.2A.733.733,0,0,0,49.643,21.938Z" transform="translate(1425.394 1549.38)" stroke="#707070" stroke-width="1"/>
    <path id="Path_430" data-name="Path 430" d="M29.419,30.63A.733.733,0,0,0,30.453,29.6l-1.467-1.467a.733.733,0,0,0-1.034,1.012Z" transform="translate(1431.015 1546.35)" stroke="#707070" stroke-width="1"/>
    <path id="Path_431" data-name="Path 431" d="M29.554,68.489l-1.467,1.467a.739.739,0,1,0,1.02,1.071l1.467-1.467a.733.733,0,0,0-1.034-1.034Z" transform="translate(1431.005 1535.593)" stroke="#707070" stroke-width="1"/>
    <path id="Path_432" data-name="Path 432" d="M69.56,68.346a.733.733,0,0,0-1.034,1.034l1.467,1.467a.733.733,0,0,0,1.034-1.012Z" transform="translate(1420.213 1535.641)" stroke="#707070" stroke-width="1"/>
    <path id="Path_433" data-name="Path 433" d="M68.86,30.676a.733.733,0,0,0,.521-.213L70.848,29a.739.739,0,0,0-1.02-1.071l-1.467,1.467a.733.733,0,0,0,.521,1.254Z" transform="translate(1420.268 1546.421)" stroke="#707070" stroke-width="1"/>
  </g>
</svg>
