<svg width="512" height="512" xmlns="http://www.w3.org/2000/svg" xml:space="preserve" version="1.1">

 <g>
  <title>Layer 1</title>
  <g id="svg_1">
   <path id="svg_2" data-original="#9e5015" clip-rule="evenodd" d="m44.131,65.463l353.275,0c5.587,0 10.159,4.543 10.159,10.131l0,418.15c0,5.559 -4.572,10.131 -10.159,10.131l-353.275,0c-5.559,0 -10.131,-4.572 -10.131,-10.131l0,-418.151c0,-5.587 4.572,-10.13 10.131,-10.13z" fill-rule="evenodd" fill="#9e5015"/>
   <path id="svg_3" data-original="#964a10" clip-rule="evenodd" d="m390.858,65.463l6.547,0c5.587,0 10.159,4.543 10.159,10.131l0,418.15c0,5.559 -4.572,10.131 -10.159,10.131l-353.274,0c-5.559,0 -10.131,-4.572 -10.131,-10.131l0,-3.302l346.728,0c5.588,0 10.131,-4.571 10.131,-10.159l0,-414.82l-0.001,0z" fill-rule="evenodd" fill="#964a10"/>
   <path id="svg_4" data-original="#e2f0fa" clip-rule="evenodd" d="m62.727,92.666l316.109,0l0,384.005l-316.109,0l0,-384.005z" fill-rule="evenodd" fill="#e2f0fa"/>
   <path id="svg_5" data-original="#0fbebe" clip-rule="evenodd" d="m290.06,44.13l-33.27,0c0,-19.9 -16.11,-36 -36,-36c-19.9,0 -36.01,16.1 -36.01,36l-33.27,0c-4.12,0 -7.49,3.36 -7.49,7.48l0,51.56c0,4.09 3.37,7.47 7.49,7.47l138.55,0c4.12,0 7.48,-3.38 7.48,-7.47l0,-51.56c0,-4.12 -3.36,-7.48 -7.48,-7.48z" fill-rule="evenodd" fill="#0fbebe"/>
   <path id="svg_6" data-original="#0ab0b0" clip-rule="evenodd" d="m286.589,44.129l3.471,0c4.12,0 7.478,3.358 7.478,7.478l0,51.556c0,4.092 -3.358,7.478 -7.478,7.478l-138.556,0c-4.12,0 -7.478,-3.386 -7.478,-7.478l0,-3.471l135.084,0c4.12,0 7.478,-3.386 7.478,-7.506l0,-48.057l0.001,0z" fill-rule="evenodd" fill="#0ab0b0"/>
   <path id="svg_7" data-original="#d0e4f2" clip-rule="evenodd" d="m363.401,92.666l15.436,0l0,384.005l-316.11,0l0,-14.449l300.674,0l0,-369.556z" fill-rule="evenodd" fill="#d0e4f2"/>
   <path id="svg_8" data-original="#ffd54f" clip-rule="evenodd" d="m475.826,163.524l-165.025,235.205l-50.71,27.373l8.522,-56.974l165.025,-235.206c3.81,-5.418 11.372,-6.744 16.819,-2.935l22.406,15.718c5.446,3.81 6.772,11.401 2.963,16.819z" fill-rule="evenodd" fill="#ffd54f"/>
   <path id="svg_9" data-original="#ffdaaa" clip-rule="evenodd" d="m318.815,197.189c-18.456,33.609 -55.423,56.551 -98.033,56.551c-42.611,0 -79.578,-22.942 -98.062,-56.551c18.484,-33.609 55.451,-56.523 98.062,-56.523s79.577,22.914 98.033,56.523z" fill-rule="evenodd" fill="#ffdaaa"/>
   <path id="svg_10" data-original="#ffc477" clip-rule="evenodd" d="m318.815,197.189c-18.456,33.609 -55.423,56.551 -98.033,56.551c-30.759,0 -58.555,-11.965 -78.59,-31.238c19.189,13.743 43.26,21.898 69.391,21.898c43.232,0 82.146,-23.676 101.391,-56.607a100.348,100.348 0 0 1 5.841,9.396z" fill-rule="evenodd" fill="#ffc477"/>
   <path id="svg_11" data-original="#0fbebe" clip-rule="evenodd" d="m220.782,253.74c31.126,0 56.523,-25.397 56.523,-56.551c0,-31.126 -25.397,-56.523 -56.523,-56.523c-31.154,0 -56.551,25.397 -56.551,56.523c0,31.154 25.397,56.551 56.551,56.551z" fill-rule="evenodd" fill="#0fbebe"/>
   <path id="svg_12" data-original="#4a4d71" clip-rule="evenodd" d="m220.782,219.313c12.191,0 22.123,-9.933 22.123,-22.124s-9.933,-22.124 -22.123,-22.124c-12.191,0 -22.124,9.933 -22.124,22.124s9.933,22.124 22.124,22.124z" fill-rule="evenodd" fill="#4a4d71"/>
   <path id="svg_13" data-original="#e2f0fa" clip-rule="evenodd" d="m211.244,196.653c4.826,0 8.776,-3.951 8.776,-8.776c0,-4.854 -3.95,-8.776 -8.776,-8.776a8.767,8.767 0 0 0 -8.776,8.776c0,4.825 3.922,8.776 8.776,8.776z" fill-rule="evenodd" fill="#e2f0fa"/>
   <path id="svg_14" data-original="#0ab0b0" clip-rule="evenodd" d="m220.782,140.666c31.21,0 56.523,25.312 56.523,56.523c0,31.238 -25.312,56.551 -56.523,56.551c-1.722,0 -3.415,-0.085 -5.108,-0.254c28.84,-2.568 51.443,-26.78 51.443,-56.297c0,-29.489 -22.603,-53.729 -51.443,-56.297c1.693,-0.169 3.386,-0.226 5.108,-0.226z" fill-rule="evenodd" fill="#0ab0b0"/>
   <path id="svg_15" data-original="#ffc328" clip-rule="evenodd" d="m475.826,163.524l-165.025,235.205l-50.71,27.373l2.653,-17.637l34.992,-18.907l165.024,-235.177c3.809,-5.446 2.483,-13.009 -2.935,-16.819l13.037,9.143c5.447,3.81 6.773,11.401 2.964,16.819z" fill-rule="evenodd" fill="#ffc328"/>
   <path id="svg_16" data-original="#df646e" clip-rule="evenodd" d="m475.826,163.524l-16.452,23.422l-42.187,-29.602l16.452,-23.422c3.81,-5.418 11.372,-6.744 16.819,-2.935l22.406,15.718c5.445,3.81 6.771,11.401 2.962,16.819z" fill-rule="evenodd" fill="#df646e"/>
   <path id="svg_17" data-original="#d82f3c" clip-rule="evenodd" d="m475.826,163.524l-16.452,23.422l-13.037,-9.143l16.424,-23.422c3.809,-5.446 2.483,-13.009 -2.935,-16.819l13.037,9.143c5.446,3.81 6.772,11.401 2.963,16.819z" fill-rule="evenodd" fill="#d82f3c"/>
   <path id="svg_18" data-original="#4a4d71" clip-rule="evenodd" d="m310.801,398.729l-42.188,-29.601l-8.522,56.974l50.71,-27.373z" fill-rule="evenodd" fill="#4a4d71"/>
   <path id="svg_19" data-original="#414470" clip-rule="evenodd" d="m310.801,398.729l-13.065,-9.171l-34.992,18.907l-2.653,17.637l50.71,-27.373z" fill-rule="evenodd" fill="#414470"/>
   <path id="svg_20" data-original="#000000" fill="#000000" d="m220.689,133.385c-43.997,0 -84.016,23.103 -104.437,60.293a6.984,6.984 0 0 0 0,6.727c20.431,37.207 60.449,60.32 104.437,60.32c43.972,0 83.979,-23.113 104.409,-60.32a6.984,6.984 0 0 0 0,-6.727c-20.42,-37.19 -60.428,-60.293 -104.409,-60.293zm-90.252,63.656c9.261,-15.397 22.468,-27.832 38.062,-36.411c-7.233,10.326 -11.493,22.877 -11.493,36.411c0,13.54 4.261,26.096 11.493,36.427c-15.592,-8.583 -28.799,-21.024 -38.062,-36.427zm90.252,49.707c-27.409,0 -49.708,-22.298 -49.708,-49.707c0,-27.394 22.298,-49.68 49.708,-49.68c27.394,0 49.68,22.286 49.68,49.68c0,27.409 -22.286,49.707 -49.68,49.707zm52.166,-13.277c7.23,-10.331 11.49,-22.889 11.49,-36.43c0,-13.535 -4.259,-26.087 -11.49,-36.414c15.591,8.579 28.797,21.015 38.058,36.414c-9.263,15.405 -22.469,27.847 -38.058,36.43zm-52.166,-63.251c-14.804,0 -26.849,12.032 -26.849,26.821s12.045,26.82 26.849,26.82c14.789,0 26.821,-12.031 26.821,-26.82s-12.032,-26.821 -26.821,-26.821zm0,39.664c-7.098,0 -12.872,-5.761 -12.872,-12.843c0,-7.083 5.774,-12.844 12.872,-12.844c7.083,0 12.844,5.761 12.844,12.844c0.001,7.082 -5.761,12.843 -12.844,12.843zm187.233,81.055a6.988,6.988 0 0 0 -6.988,6.988l0,196.427c0,1.717 -1.451,3.169 -3.168,3.169l-354.18,0c-1.717,0 -3.169,-1.451 -3.169,-3.169l0,-419.221c0,-1.717 1.452,-3.168 3.169,-3.168l93.162,0l0,13.295l-74.519,0a6.988,6.988 0 0 0 -6.988,6.988l0,384.99a6.988,6.988 0 0 0 6.988,6.988l316.92,0a6.988,6.988 0 0 0 6.988,-6.988l0,-134.016a6.988,6.988 0 0 0 -13.976,0l0,127.028l-302.943,0l0,-371.013l67.531,0l0,3.536c0,7.987 6.498,14.486 14.485,14.486l138.911,0c7.988,0 14.486,-6.499 14.486,-14.486l0,-3.536l67.53,0l0,69.229a6.988,6.988 0 1 0 13.976,0l0,-76.217a6.987,6.987 0 0 0 -6.988,-6.988l-74.519,0l0,-13.296l93.135,0a3.171,3.171 0 0 1 3.168,3.168l0,53.471a6.988,6.988 0 0 0 13.976,0l0,-53.471c0,-9.453 -7.691,-17.144 -17.145,-17.144l-93.135,0l0,-6.903c0,-7.987 -6.498,-14.486 -14.486,-14.486l-26.934,0c-3.348,-20.448 -21.142,-36.1 -42.522,-36.1c-21.395,0 -39.199,15.652 -42.549,36.1l-26.907,0c-7.987,0 -14.485,6.499 -14.485,14.486l0,6.903l-93.16,0c-9.454,0 -17.146,7.691 -17.146,17.144l0,419.222c0,9.453 7.692,17.145 17.146,17.145l354.179,0c9.453,0 17.145,-7.692 17.145,-17.145l0,-196.427a6.989,6.989 0 0 0 -6.988,-6.989zm-257.197,-239.853c0,-0.272 0.238,-0.51 0.509,-0.51l33.328,0a6.988,6.988 0 0 0 6.988,-6.988c0,-16.053 13.072,-29.111 29.14,-29.111c16.052,0 29.111,13.059 29.111,29.111a6.988,6.988 0 0 0 6.988,6.988l33.356,0c0.271,0 0.509,0.238 0.509,0.51l0,51.687c0,0.257 -0.251,0.51 -0.509,0.51l-138.911,0c-0.257,0 -0.509,-0.252 -0.509,-0.51l0,-51.687zm61.204,1.235c-4.791,-4.79 -4.805,-12.623 -0.033,-17.46c4.905,-4.837 12.735,-4.823 17.527,-0.033a0.514,0.514 0 0 0 0.033,0.033c4.772,4.837 4.757,12.67 -0.033,17.46a12.205,12.205 0 0 1 -8.695,3.637l-0.042,0c-3.301,0 -6.409,-1.29 -8.757,-3.637zm-111.761,262.978a6.987,6.987 0 0 1 6.988,-6.988l113.533,0a6.988,6.988 0 1 1 0,13.976l-113.532,0a6.988,6.988 0 0 1 -6.989,-6.988zm0,59.525a6.987,6.987 0 0 1 6.988,-6.988l113.533,0a6.988,6.988 0 1 1 0,13.976l-113.532,0a6.989,6.989 0 0 1 -6.989,-6.988zm6.989,66.485a6.988,6.988 0 1 1 0,-13.976l113.533,0a6.988,6.988 0 1 1 0,13.976l-113.533,0zm378.107,-288.261c-0.885,-5.044 -3.67,-9.428 -7.835,-12.34l-22.47,-15.764c-8.617,-6.028 -20.542,-3.944 -26.588,4.655l-16.304,23.238c-0.063,0.082 -0.13,0.158 -0.19,0.244c-0.06,0.085 -0.109,0.174 -0.165,0.262l-89.832,128.034l-214.723,0a6.988,6.988 0 1 0 0,13.976l204.917,0l-31.938,45.52l-172.979,0a6.988,6.988 0 1 0 0,13.976l163.173,0l-7.407,10.557a6.991,6.991 0 0 0 -1.191,2.98l-4.789,32.013l-149.786,0a6.988,6.988 0 1 0 0,13.976l147.696,0l-1.665,11.131a6.99,6.99 0 0 0 10.232,7.183l50.84,-27.443a7.004,7.004 0 0 0 2.401,-2.135l165.443,-235.802c2.922,-4.157 4.045,-9.222 3.16,-14.261zm-216.186,260.705l4.804,-32.118l23.79,16.684l-28.594,15.434zm40.159,-24.395l-30.861,-21.643l140.941,-200.879l30.855,21.65l-140.935,200.872zm161.433,-230.088l-0.004,0.006l-12.468,17.77l-30.855,-21.65l12.464,-17.765c1.62,-2.303 4.824,-2.856 7.132,-1.242l22.472,15.764a5.076,5.076 0 0 1 2.088,3.31c0.238,1.358 -0.056,2.708 -0.829,3.807z"/>
  </g>
 </g>
</svg>