<svg xmlns="http://www.w3.org/2000/svg" width="50.25" height="48.414" viewBox="0 0 50.25 48.414">
  <g id="noun-happy-5502386" transform="translate(-0.001 -0.194)" opacity="0.5">
    <g id="Group_134" data-name="Group 134" transform="translate(0.001 0.194)">
      <path id="Path_405" data-name="Path 405" d="M43.61.194a1.256,1.256,0,0,0-1.252,1.261v3a1.253,1.253,0,0,0,2.505,0v-3A1.256,1.256,0,0,0,43.61.194ZM38.221,5.583a1.256,1.256,0,0,0,0,2.513h3a1.256,1.256,0,1,0,0-2.513Zm7.781,0A1.256,1.256,0,1,0,46,8.1h3a1.256,1.256,0,0,0,0-2.513ZM25.127,6.5A17.905,17.905,0,1,0,43.036,24.4,17.923,17.923,0,0,0,25.127,6.5ZM43.61,7.966a1.256,1.256,0,0,0-1.252,1.261v3a1.253,1.253,0,0,0,2.505,0v-3A1.256,1.256,0,0,0,43.61,7.966ZM25.127,9.014A15.392,15.392,0,1,1,9.731,24.4a15.37,15.37,0,0,1,15.4-15.389ZM18.2,17.278a4.941,4.941,0,0,0-4.444,2.977,1.257,1.257,0,0,0,2.309.994,2.426,2.426,0,0,1,4.451.007,1.257,1.257,0,0,0,2.309-.991,4.945,4.945,0,0,0-4.535-2.986H18.2Zm13.671,0a4.94,4.94,0,0,0-4.444,2.977,1.257,1.257,0,0,0,2.309.994,2.426,2.426,0,0,1,4.451.007,1.257,1.257,0,0,0,2.309-.991,4.945,4.945,0,0,0-4.535-2.986H31.87ZM18.317,27.784a1.256,1.256,0,0,0-.871,2.155,10.769,10.769,0,0,0,15.359,0,1.255,1.255,0,1,0-1.762-1.789,8.27,8.27,0,0,1-11.835,0,1.256,1.256,0,0,0-.891-.366ZM6.641,35.327A1.256,1.256,0,0,0,5.39,36.589v3a1.256,1.256,0,0,0,2.513,0v-3a1.256,1.256,0,0,0-1.261-1.261ZM1.252,40.716a1.256,1.256,0,0,0,0,2.513h3a1.256,1.256,0,1,0,0-2.513Zm7.781,0a1.256,1.256,0,1,0,0,2.513h3a1.256,1.256,0,0,0,0-2.513ZM6.641,43.109A1.256,1.256,0,0,0,5.39,44.36v3a1.256,1.256,0,0,0,2.513,0v-3a1.256,1.256,0,0,0-1.261-1.252Z" transform="translate(-0.001 -0.194)" fill-rule="evenodd"/>
    </g>
  </g>
</svg>
