<svg xmlns="http://www.w3.org/2000/svg" width="104.3" height="84.367" viewBox="0 0 104.3 84.367">
  <g id="Group_87" data-name="Group 87" transform="translate(-715.85 -955.708)">
    <g id="noun-eye-strain-2010932" transform="translate(715.85 956.631)">
      <g id="Group_85" data-name="Group 85" transform="translate(0 0)">
        <path id="Path_379" data-name="Path 379" d="M117.64,85.871a7.01,7.01,0,0,0,0-9.1A48.854,48.854,0,0,0,81.255,59.3H78.861A48.854,48.854,0,0,0,42.476,76.774a7.01,7.01,0,0,0,0,9.1,48.854,48.854,0,0,0,36.385,17.474h2.394A48.986,48.986,0,0,0,117.64,85.871ZM44.869,83.8a3.857,3.857,0,0,1,0-4.947A45.663,45.663,0,0,1,65.376,64.885a21.915,21.915,0,0,0,0,32.874A45.662,45.662,0,0,1,44.869,83.8Zm35.188,16.357h0c0-.08,0-.08.08-.16a4.8,4.8,0,0,0,.559-1.117,6.273,6.273,0,0,0-.4-3.351,5.4,5.4,0,0,1-.319-1.2.918.918,0,1,0-1.835.08,8.326,8.326,0,0,0,.4,1.676,4.77,4.77,0,0,1,.4,2.154,3.234,3.234,0,0,1-.4.718c-.16.319-.4.638-.559,1.037a21.241,21.241,0,0,1-3.112-.559,2.2,2.2,0,0,1,.638-1.2,3.891,3.891,0,0,0,1.037-1.915A.892.892,0,0,0,74.791,96a1.976,1.976,0,0,1-.638,1.117,3.373,3.373,0,0,0-.958,1.755,20.116,20.116,0,0,1-4.628-2.553c.239-.239.4-.479.638-.718a1.127,1.127,0,0,1,1.2-.16,8.621,8.621,0,0,0,1.356.319A.925.925,0,1,0,72,93.93a3.455,3.455,0,0,1-.4-.08c1.516-.878,1.835-1.676,1.915-1.915A.9.9,0,0,0,72.8,90.9a.89.89,0,0,0-1.037.638A3.856,3.856,0,0,1,70.4,92.573a10.265,10.265,0,0,0-3.192,2.633c-.319-.319-.638-.559-.958-.878.16-.08.239-.239.4-.319a4.049,4.049,0,0,0,1.516-1.835.94.94,0,0,0-.479-1.2.874.874,0,0,0-1.2.479c-.239.559-.559.718-.958,1.117a2.116,2.116,0,0,0-.479.4c-.319-.479-.718-.958-1.037-1.436a2.4,2.4,0,0,0,1.037-1.516c.08-.4.16-.559.319-.638a2.034,2.034,0,0,1,1.037-.16,3.027,3.027,0,0,0,2.713-1.2.918.918,0,1,0-1.516-1.037c-.239.319-.479.4-1.2.4a3.1,3.1,0,0,0-1.995.479,2.865,2.865,0,0,0-1.037,1.6c-.08.239-.08.4-.239.479a18.412,18.412,0,0,1-1.516-4.149,2.976,2.976,0,0,1,1.915-.4,4.594,4.594,0,0,0,2.234-.4.912.912,0,1,0-.718-1.676,3.2,3.2,0,0,1-1.516.239,4.75,4.75,0,0,0-2.234.4,10.814,10.814,0,0,1-.16-1.6,4.028,4.028,0,0,0,2.075.16,11.944,11.944,0,0,0,1.6-.559c.8-.4.958-.479,1.516,0a.9.9,0,0,0,1.2-1.356,2.519,2.519,0,0,0-3.431-.319,5.356,5.356,0,0,1-1.2.479,1.83,1.83,0,0,1-1.2-.08,1.479,1.479,0,0,0-.559-.16,9.777,9.777,0,0,1,.16-1.516,12.161,12.161,0,0,1,1.516.239,4.71,4.71,0,0,0,1.117.16,2.536,2.536,0,0,0,1.037-.16.91.91,0,0,0-.479-1.755,2.314,2.314,0,0,1-1.277,0,13.824,13.824,0,0,0-1.6-.319,18.255,18.255,0,0,1,.638-2.234c.16,0,.239.08.4.08a12.467,12.467,0,0,1,2.713.8,1.7,1.7,0,0,1,.638.479.82.82,0,0,0,.878.8h.08a.885.885,0,0,0,.878-.878c0-.239,0-1.277-1.6-2.075a11.558,11.558,0,0,0-3.192-.957h-.08l.718-1.436a2.619,2.619,0,0,0,2.154,1.2,7.186,7.186,0,0,0,1.277-.239,3.115,3.115,0,0,1,1.117-.16.878.878,0,0,0,.8.479.6.6,0,0,0,.4-.08.9.9,0,0,0,.319-1.2c-.8-1.356-2.314-.958-3.192-.638-.319.08-.638.16-.878.239-.16,0-.638-.559-.878-.8l-.16-.16a12.868,12.868,0,0,1,1.915-2.234c.479.4.878.8.878,1.037a.865.865,0,0,0,.878.638h.239a.978.978,0,0,0,.638-1.117,4.3,4.3,0,0,0-1.277-1.755c.239-.239.559-.4.8-.638a3.851,3.851,0,0,0,2.314,1.835c.8.16,1.436,1.2,1.755,2.075a.863.863,0,0,0,.878.559.48.48,0,0,0,.319-.08.893.893,0,0,0,.559-1.117c-.319-.8-1.2-2.793-3.032-3.192a2.127,2.127,0,0,1-1.2-1.037,16.747,16.747,0,0,1,2.394-1.2c.08.08.08.16.16.239a7.264,7.264,0,0,1,1.436,2.154.933.933,0,0,0,.878.638.6.6,0,0,0,.319-.08A.862.862,0,0,0,76.068,66a9.359,9.359,0,0,0-1.516-2.394,18.28,18.28,0,0,1,2.234-.559c0,.239.08.559.08.8.16,1.516.319,2.952,1.277,3.591.878.559.8.8.8.878a.9.9,0,0,0,.718,1.037h.16a.935.935,0,0,0,.878-.718,2.65,2.65,0,0,0-1.6-2.793,6.7,6.7,0,0,1-.479-2.234c0-.319-.08-.559-.08-.878H81.1a3.392,3.392,0,0,0-.239,2.474,2.813,2.813,0,0,0,.958,1.277c.319.319.4.4,0,1.277a.906.906,0,0,0,.4,1.2.719.719,0,0,0,.4.08.878.878,0,0,0,.8-.479c.958-1.915.319-2.713-.4-3.351-.239-.239-.4-.319-.479-.559a3.006,3.006,0,0,1,.479-1.676,18.9,18.9,0,0,1,2.873.718,4.861,4.861,0,0,0-.239,1.356c-.08.479-.08.8-.239.958a.891.891,0,0,0,.08,1.277.862.862,0,0,0,.559.239.726.726,0,0,0,.638-.319A3.064,3.064,0,0,0,87.4,65.2a4.005,4.005,0,0,1,.16-.958A24.84,24.84,0,0,1,90.75,66a4.844,4.844,0,0,1-.559.8A6,6,0,0,1,88.915,68a5.082,5.082,0,0,0-1.995,2.234.906.906,0,0,0,.4,1.2.719.719,0,0,0,.4.08.878.878,0,0,0,.8-.479,3.784,3.784,0,0,1,1.436-1.516,6.366,6.366,0,0,0,1.755-1.6,2.987,2.987,0,0,0,.479-.8c.479.4.958.878,1.436,1.277a13.118,13.118,0,0,0-3.431,2.713l-.479.479a.9.9,0,0,0-.16,1.277.866.866,0,0,0,.718.319,1.479,1.479,0,0,0,.559-.16,6.008,6.008,0,0,0,.718-.718A11.054,11.054,0,0,1,94.9,69.753c.4.559.8,1.037,1.2,1.676a2.6,2.6,0,0,0-2.234,1.436.9.9,0,0,0,.319,1.2,1.012,1.012,0,0,0,.479.08.878.878,0,0,0,.8-.479c.319-.479.479-.8,1.755-.319.16.4.4.8.559,1.277a2.067,2.067,0,0,0-1.835,1.2,2.16,2.16,0,0,1-.878.8c-.559.239-.638.16-1.117-.319a3.969,3.969,0,0,0-1.037-.878.876.876,0,0,0-.878,1.516,4.385,4.385,0,0,1,.718.559,2.6,2.6,0,0,0,1.915.958,1.983,1.983,0,0,0,.638-.08c.08.319.16.718.239,1.037a.865.865,0,0,0,.878.638h.239a.908.908,0,0,0,.638-1.117c-.08-.319-.319-1.356-.16-1.6a3.47,3.47,0,0,1,.479-.559c.239-.4.319-.4.638-.4a1.348,1.348,0,0,1,.4.16,19.368,19.368,0,0,1,.638,4.867v.08h-.08c-.718.239-1.6.479-1.995.559a3.362,3.362,0,0,1-1.037-.559,10.716,10.716,0,0,0-1.915-.958A.883.883,0,1,0,93.7,82.2a6.468,6.468,0,0,1,1.436.8,4.212,4.212,0,0,0,1.995.8h.239a15.055,15.055,0,0,0,1.676-.479,17.563,17.563,0,0,1-.559,2.952,1.1,1.1,0,0,1-.239-.319c-.16-.239-.4-.479-.638-.8-.957-1.117-2.234-.718-3.192-.479l-.958.239a.881.881,0,1,0,.16,1.755c.4-.08.878-.16,1.2-.239.878-.239,1.2-.239,1.436,0a2.615,2.615,0,0,1,.479.638A3.221,3.221,0,0,0,97.772,88.1a15.949,15.949,0,0,1-.8,1.676c-.239-.08-.4-.319-.8-.878a8.357,8.357,0,0,0-.638-.878.9.9,0,1,0-1.356,1.2,4.426,4.426,0,0,1,.479.638,4.779,4.779,0,0,0,1.356,1.516,15.082,15.082,0,0,1-1.6,2.154c-.239-.16-.4-.319-.638-.479s-.479-.239-.8-.479c-.16-.08-.16-.239-.16-.878a2.5,2.5,0,0,0-1.755-2.952.883.883,0,1,0-.559,1.676c.638.239.638.4.559,1.117a2.387,2.387,0,0,0,.878,2.394c.319.239.638.4.878.559a1.1,1.1,0,0,1,.319.239,19.825,19.825,0,0,1-2.394,1.995,7.678,7.678,0,0,1-1.356-1.037c-.319-.319-.319-.878-.239-1.835v-.559a1.02,1.02,0,0,0-.878-.958c-.479-.08-.878.4-.958.878v.559c-.08,1.2-.16,2.394.878,3.271a8.48,8.48,0,0,1,.878.718A13.546,13.546,0,0,1,85.563,99.2c-.16-.239-.08-.638.08-1.277a4.209,4.209,0,0,0,.239-.958c.08-1.117-.8-1.676-1.436-2.154-.239-.16-.4-.319-.638-.479a.9.9,0,0,0-1.2,1.356,4.844,4.844,0,0,0,.8.559,7.729,7.729,0,0,1,.718.559,1.654,1.654,0,0,1-.16.479,3.6,3.6,0,0,0-.16,2.314,15.723,15.723,0,0,1-2.713.319A1.781,1.781,0,0,1,80.058,100.154Zm14.6-2.394a21.915,21.915,0,0,0,0-32.874,45.662,45.662,0,0,1,20.507,13.964,3.857,3.857,0,0,1,0,4.947A45.662,45.662,0,0,1,94.66,97.76Z" transform="translate(-27.353 -55.47)"/>
        <path id="Path_380" data-name="Path 380" d="M98.044,84.172A10.772,10.772,0,1,0,87.272,94.944,10.829,10.829,0,0,0,98.044,84.172Zm-3.591-.319a7.309,7.309,0,0,1-.878,3.431,1.519,1.519,0,0,1-1.436.8,2.33,2.33,0,0,1-.718-.16,1.571,1.571,0,0,1-.638-2.154,4.009,4.009,0,0,0,.479-1.915,1.6,1.6,0,0,1,3.192,0ZM82.245,85.369a1.556,1.556,0,0,1-.638.08,1.636,1.636,0,0,1-1.6-1.6v-.319c0-.08.08-.239.08-.319s.08-.16.16-.239.16-.16.16-.239a1.7,1.7,0,0,1,2.234,0,1.543,1.543,0,0,1,0,2.234A.961.961,0,0,1,82.245,85.369ZM84.4,80.661a1.59,1.59,0,0,1-.8-2.952,7.5,7.5,0,0,1,3.67-1.037,1.6,1.6,0,1,1,0,3.192,3.866,3.866,0,0,0-2.075.559A1.54,1.54,0,0,1,84.4,80.661Z" transform="translate(-34.567 -58.319)"/>
        <path id="Path_381" data-name="Path 381" d="M32.766,82.341h.239a.934.934,0,0,0,.878-.638.908.908,0,0,0-.638-1.117c-2.873-.8-6.7-5.346-7.58-7.74a.893.893,0,0,0-1.117-.559.971.971,0,0,0-.559,1.117C25.027,76.357,29.176,81.3,32.766,82.341Z" transform="translate(-23.947 -58.085)"/>
        <path id="Path_382" data-name="Path 382" d="M40.5,94.121a.9.9,0,0,0-1.356,1.2,48.071,48.071,0,0,0,3.91,4.149.971.971,0,0,0,1.277,0,.971.971,0,0,0,0-1.277A46.189,46.189,0,0,1,40.5,94.121Z" transform="translate(-26.971 -62.444)"/>
        <path id="Path_383" data-name="Path 383" d="M131.8,94.121a51.171,51.171,0,0,1-27.768,17,.8.8,0,0,0-.638,1.037.935.935,0,0,0,.878.718h.239a52.143,52.143,0,0,0,28.725-17.554.969.969,0,0,0-.08-1.277A.981.981,0,0,0,131.8,94.121Z" transform="translate(-39.993 -62.444)"/>
        <path id="Path_384" data-name="Path 384" d="M128.727,67.15a.91.91,0,1,0-1.117,1.436,55.888,55.888,0,0,1,9.016,8.378.778.778,0,0,0,.718.319.724.724,0,0,0,.559-.239.891.891,0,0,0,.08-1.277A55.912,55.912,0,0,0,128.727,67.15Z" transform="translate(-44.823 -57.017)"/>
        <path id="Path_385" data-name="Path 385" d="M39.787,74.847a.975.975,0,0,0,.718-.319A51.143,51.143,0,0,1,79.683,56.255a.878.878,0,0,0,0-1.755A52.828,52.828,0,0,0,39.149,73.411a.97.97,0,0,0,.08,1.277A1.479,1.479,0,0,0,39.787,74.847Z" transform="translate(-26.978 -54.5)"/>
        <path id="Path_386" data-name="Path 386" d="M33.689,88.488a18.926,18.926,0,0,0-4.867,2.952.891.891,0,0,0-.08,1.277.778.778,0,0,0,.718.319.724.724,0,0,0,.559-.239,16.158,16.158,0,0,1,4.229-2.633.883.883,0,0,0-.559-1.676Z" transform="translate(-24.87 -61.358)"/>
        <path id="Path_387" data-name="Path 387" d="M151.532,72.288a.862.862,0,0,0-1.117.559c-.878,2.394-4.708,6.942-7.58,7.74A.978.978,0,0,0,142.2,81.7a.865.865,0,0,0,.878.638h.239c3.591-1.037,7.74-5.984,8.777-8.857A.982.982,0,0,0,151.532,72.288Z" transform="translate(-47.84 -58.085)"/>
        <path id="Path_388" data-name="Path 388" d="M143.3,88.488a.883.883,0,0,0-.559,1.676,15.492,15.492,0,0,1,4.229,2.633.862.862,0,0,0,.559.239.975.975,0,0,0,.718-.319.891.891,0,0,0-.08-1.277A20.617,20.617,0,0,0,143.3,88.488Z" transform="translate(-47.831 -61.358)"/>
      </g>
    </g>
    <path id="Path_389" data-name="Path 389" d="M17.879,77.366a8.155,8.155,0,0,1-2.861-11.049L23.633,51.4a8.083,8.083,0,0,1,3.117-2.986,8.271,8.271,0,0,1,3.332-.963l2.148-3.722A23.707,23.707,0,0,1,27.261,13.99l.056-.1A23.692,23.692,0,0,1,59.63,5.316l.14.081A23.7,23.7,0,0,1,40.081,48.264l-2.148,3.722a8.3,8.3,0,0,1,.832,3.372,8.122,8.122,0,0,1-1.082,4.286L29.131,74.458a8.06,8.06,0,0,1-4.915,3.787,8.265,8.265,0,0,1-6.193-.792l-.134-.084ZM52.015,17.69a1.6,1.6,0,0,1,2.023-2.45,12.3,12.3,0,0,1,4.4,16.75,1.592,1.592,0,1,1-2.687-1.7,9.139,9.139,0,0,0-3.329-12.3,1.632,1.632,0,0,1-.411-.3Zm-21.9,37.592a1.589,1.589,0,0,1,2.755,1.583l-4.763,8.247a1.589,1.589,0,0,1-2.755-1.583ZM22.913,67.768a1.589,1.589,0,0,1,2.755,1.583L24.325,71.68A1.589,1.589,0,1,1,21.57,70.1ZM56.98,10.146a16.718,16.718,0,1,1-.093-.059Zm5.3,11.813a14.963,14.963,0,0,0-6.91-9.07l-.084-.044a15.009,15.009,0,1,0,6.994,9.111ZM17.29,71.668A4.944,4.944,0,0,0,19.5,74.632l.075.041a5.106,5.106,0,0,0,3.812.492,4.887,4.887,0,0,0,2.986-2.291L34.922,58.06a4.908,4.908,0,0,0,.658-2.615,5.024,5.024,0,0,0-.817-2.6,1.6,1.6,0,0,1-.044-1.658l3.245-5.62a1.587,1.587,0,0,1,2.017-.739A20.523,20.523,0,0,0,58.165,8.143l-.209-.118A20.523,20.523,0,0,0,30.063,15.5l-.1.165a20.532,20.532,0,0,0,5.28,26.426,1.6,1.6,0,0,1,.405,2.051l-3.232,5.6a1.6,1.6,0,0,1-1.505.882,5.056,5.056,0,0,0-2.662.6,4.91,4.91,0,0,0-1.886,1.8l-8.6,14.9a4.954,4.954,0,0,0-.483,3.762Z" transform="translate(721.012 957.561)"/>
    <path id="Path_389_-_Outline" data-name="Path 389 - Outline" d="M21.084,77.513a8.189,8.189,0,0,0,2.121-.279,8.06,8.06,0,0,0,4.915-3.787l8.553-14.814a8.122,8.122,0,0,0,1.082-4.286,8.3,8.3,0,0,0-.832-3.372l2.148-3.722a24.091,24.091,0,0,0,6.741,1.27,23.368,23.368,0,0,0,8.625-1.254A23.7,23.7,0,0,0,58.759,4.386l-.14-.081a23.692,23.692,0,0,0-32.313,8.578l-.056.1a23.707,23.707,0,0,0,4.968,29.738L29.071,46.44a8.271,8.271,0,0,0-3.332.963,8.083,8.083,0,0,0-3.117,2.986L14.007,65.306a8.155,8.155,0,0,0,2.861,11.049l.009,0,.134.084a8.316,8.316,0,0,0,4.072,1.071m-4.8-6.856,0,0A4.954,4.954,0,0,1,16.76,66.9l8.6-14.9a4.91,4.91,0,0,1,1.886-1.8,5.057,5.057,0,0,1,2.662-.6,1.6,1.6,0,0,0,1.505-.882l3.232-5.6a1.6,1.6,0,0,0-.405-2.051,20.532,20.532,0,0,1-5.28-26.426l.1-.165A20.523,20.523,0,0,1,56.946,7.014l.209.118a20.518,20.518,0,0,1-3.743,37.122,21.18,21.18,0,0,1-6.036,1.1,20.058,20.058,0,0,1-8.405-1.532,1.587,1.587,0,0,0-2.017.739l-3.245,5.62a1.6,1.6,0,0,0,.044,1.658,5.024,5.024,0,0,1,.817,2.6,4.908,4.908,0,0,1-.658,2.615L25.359,71.863a4.887,4.887,0,0,1-2.986,2.291,5.106,5.106,0,0,1-3.812-.492l-.075-.041a4.944,4.944,0,0,1-2.207-2.964m5.656.809a1.588,1.588,0,0,0,1.379-.8l1.343-2.328A1.589,1.589,0,0,0,21.9,66.758l-1.343,2.328a1.589,1.589,0,0,0,1.376,2.38M25.722,64.9a1.588,1.588,0,0,0,1.379-.8l4.763-8.247a1.589,1.589,0,1,0-2.755-1.583l-4.763,8.247a1.589,1.589,0,0,0,1.376,2.38M46.77,43.031a18.192,18.192,0,0,0,9.2-33.895l-.093-.059A18.193,18.193,0,1,0,46.77,43.031m.023-33.205a14.927,14.927,0,0,1,7.484,2.01l.084.044a14.963,14.963,0,0,1,6.91,9.07v0A15.005,15.005,0,0,1,50.661,39.33a15.289,15.289,0,0,1-8.008-.061,14.39,14.39,0,0,1-3.378-1.435A15.012,15.012,0,0,1,46.793,9.825M56.05,31.784a1.587,1.587,0,0,0,1.381-.8,12.3,12.3,0,0,0-4.4-16.75A1.6,1.6,0,0,0,51,16.68v0a1.632,1.632,0,0,0,.411.3,9.139,9.139,0,0,1,3.329,12.3,1.593,1.593,0,0,0,1.306,2.506M21.084,81.5a12.351,12.351,0,0,1-6.022-1.58q-.087-.049-.171-.1l-.031-.02-.046-.027a12.136,12.136,0,0,1-4.261-16.463l8.616-14.918.027-.046a12.092,12.092,0,0,1,4.652-4.457l.006,0a12.274,12.274,0,0,1,2.036-.864,27.671,27.671,0,0,1-3.094-32.037l.005-.009.056-.1,0-.008A27.672,27.672,0,0,1,60.615.85l.14.081.022.013A27.7,27.7,0,0,1,41.472,52.021a12.336,12.336,0,0,1,.271,2.2v.016a12.126,12.126,0,0,1-1.611,6.386l0,.006L31.575,75.442a12.017,12.017,0,0,1-7.341,5.647A12.174,12.174,0,0,1,21.084,81.5ZM46.793,13.815a11.1,11.1,0,0,0-2.87.378,11.019,11.019,0,0,0,2.836,21.661,11.136,11.136,0,0,0,5.573-1.5q-.112-.1-.22-.208L52.1,34.14a5.582,5.582,0,0,1-.789-6.907,5.15,5.15,0,0,0-1.869-6.787,5.608,5.608,0,0,1-1.074-.769q-.1-.085-.189-.177a5.6,5.6,0,0,1-1.362-5.686Z" transform="translate(722.022 958.571)" fill="#cdf5fd"/>
  </g>
</svg>
